<?xml version="1.0" encoding="iso-8859-1"?>
<!-- Generator: Adobe Illustrator 19.0.0, SVG Export Plug-In . SVG Version: 6.00 Build 0)  -->
<svg version="1.1" id="Layer_1" xmlns="http://www.w3.org/2000/svg" xmlns:xlink="http://www.w3.org/1999/xlink" x="0px" y="0px"
	 viewBox="0 0 512 512" style="enable-background:new 0 0 512 512;" xml:space="preserve">
<path style="fill:#00AAF0;" d="M485.517,44.138H114.759c-14.626,0-26.483,11.857-26.483,26.483v229.517
	c0,14.626,11.857,26.483,26.483,26.483h370.759c14.626,0,26.483-11.857,26.483-26.483V70.621
	C512,55.994,500.143,44.138,485.517,44.138z"/>
<path style="fill:#0096DC;" d="M397.241,167.724H88.276v132.414c0,14.626,11.857,26.483,26.483,26.483h326.621V211.862
	C441.379,187.486,421.618,167.724,397.241,167.724z"/>
<rect x="88.276" y="79.448" style="fill:#464655;" width="423.724" height="52.966"/>
<path style="fill:#00C3FF;" d="M397.241,185.379H26.483C11.857,185.379,0,197.236,0,211.862v229.517
	c0,14.626,11.857,26.483,26.483,26.483h370.759c14.626,0,26.483-11.857,26.483-26.483V211.862
	C423.724,197.236,411.868,185.379,397.241,185.379z"/>
<path style="fill:#C7CFE2;" d="M105.931,353.103H52.966c-4.879,0-8.828-3.953-8.828-8.828c0-4.875,3.948-8.828,8.828-8.828h52.966
	c4.879,0,8.828,3.953,8.828,8.828C114.759,349.151,110.81,353.103,105.931,353.103z"/>
<g>
	<path style="fill:#AFB9D2;" d="M229.517,388.414h-17.655c-4.879,0-8.828-3.953-8.828-8.828s3.948-8.828,8.828-8.828h17.655
		c4.879,0,8.828,3.953,8.828,8.828S234.397,388.414,229.517,388.414z"/>
	<path style="fill:#AFB9D2;" d="M282.483,388.414h-17.655c-4.879,0-8.828-3.953-8.828-8.828s3.948-8.828,8.828-8.828h17.655
		c4.879,0,8.828,3.953,8.828,8.828S287.362,388.414,282.483,388.414z"/>
</g>
<g>
	<path style="fill:#C7CFE2;" d="M194.207,353.103h-52.966c-4.879,0-8.828-3.953-8.828-8.828c0-4.875,3.948-8.828,8.828-8.828h52.966
		c4.879,0,8.828,3.953,8.828,8.828C203.034,349.151,199.086,353.103,194.207,353.103z"/>
	<path style="fill:#C7CFE2;" d="M282.483,353.103h-52.966c-4.879,0-8.828-3.953-8.828-8.828c0-4.875,3.948-8.828,8.828-8.828h52.966
		c4.879,0,8.828,3.953,8.828,8.828C291.31,349.151,287.362,353.103,282.483,353.103z"/>
	<path style="fill:#C7CFE2;" d="M114.759,423.724H52.966c-4.879,0-8.828-3.953-8.828-8.828s3.948-8.828,8.828-8.828h61.793
		c4.879,0,8.828,3.953,8.828,8.828S119.638,423.724,114.759,423.724z"/>
	<path style="fill:#C7CFE2;" d="M194.207,423.724h-44.138c-4.879,0-8.828-3.953-8.828-8.828s3.948-8.828,8.828-8.828h44.138
		c4.879,0,8.828,3.953,8.828,8.828S199.086,423.724,194.207,423.724z"/>
	<path style="fill:#C7CFE2;" d="M370.759,353.103h-52.966c-4.879,0-8.828-3.953-8.828-8.828c0-4.875,3.948-8.828,8.828-8.828h52.966
		c4.879,0,8.828,3.953,8.828,8.828C379.586,349.151,375.638,353.103,370.759,353.103z"/>
</g>
<g>
	<path style="fill:#FFDC64;" d="M105.931,308.966h-35.31c-9.751,0-17.655-7.904-17.655-17.655v-17.655
		c0-9.751,7.904-17.655,17.655-17.655h35.31c9.751,0,17.655,7.904,17.655,17.655v17.655
		C123.586,301.062,115.682,308.966,105.931,308.966z"/>
	<circle style="fill:#FFDC64;" cx="344.276" cy="264.828" r="35.31"/>
</g>
<circle style="fill:#FF5050;" cx="300.138" cy="264.828" r="35.31"/>
<path style="fill:#FF8C5A;" d="M308.966,264.828c0,11.103,5.228,20.887,13.241,27.36c8.013-6.473,13.241-16.257,13.241-27.36
	c0-11.104-5.228-20.887-13.241-27.36C314.194,243.94,308.966,253.725,308.966,264.828z"/>
<g>
</g>
<g>
</g>
<g>
</g>
<g>
</g>
<g>
</g>
<g>
</g>
<g>
</g>
<g>
</g>
<g>
</g>
<g>
</g>
<g>
</g>
<g>
</g>
<g>
</g>
<g>
</g>
<g>
</g>
</svg>
